<?xml version="1.0" encoding="UTF-8" standalone="no"?>
<!DOCTYPE svg PUBLIC "-//W3C//DTD SVG 1.1//EN"
 "http://www.w3.org/Graphics/SVG/1.1/DTD/svg11.dtd">
<!-- Generated by graphviz version 8.0.1 (20230327.1645)
 -->
<!-- Title: Tree Pages: 1 -->
<svg width="720pt" height="435pt"
 viewBox="0.00 0.00 720.00 435.04" xmlns="http://www.w3.org/2000/svg" xmlns:xlink="http://www.w3.org/1999/xlink">
<g id="graph0" class="graph" transform="scale(0.770878 0.770878) rotate(0) translate(4 560.35)">
<title>Tree</title>
<polygon fill="white" stroke="none" points="-4,4 -4,-560.35 930,-560.35 930,4 -4,4"/>
<!-- 0 -->
<g id="node1" class="node">
<title>0</title>
<path fill="#f5cfb4" stroke="black" d="M522,-540C522,-540 424,-540 424,-540 418,-540 412,-534 412,-528 412,-528 412,-484 412,-484 412,-478 418,-472 424,-472 424,-472 522,-472 522,-472 528,-472 534,-478 534,-484 534,-484 534,-528 534,-528 534,-534 528,-540 522,-540"/>
<text text-anchor="start" x="420" y="-524.8" font-family="Helvetica,sans-Serif" font-size="14.00">shop_name ≤ 2.5</text>
<text text-anchor="start" x="442.5" y="-509.8" font-family="Helvetica,sans-Serif" font-size="14.00">mse = 0.2</text>
<text text-anchor="start" x="428" y="-494.8" font-family="Helvetica,sans-Serif" font-size="14.00">samples = 480</text>
<text text-anchor="start" x="435.5" y="-479.8" font-family="Helvetica,sans-Serif" font-size="14.00">value = 7.89</text>
</g>
<!-- 1 -->
<g id="node2" class="node">
<title>1</title>
<path fill="#eeac7c" stroke="black" d="M427.5,-384C427.5,-384 312.5,-384 312.5,-384 306.5,-384 300.5,-378 300.5,-372 300.5,-372 300.5,-328 300.5,-328 300.5,-322 306.5,-316 312.5,-316 312.5,-316 427.5,-316 427.5,-316 433.5,-316 439.5,-322 439.5,-328 439.5,-328 439.5,-372 439.5,-372 439.5,-378 433.5,-384 427.5,-384"/>
<text text-anchor="start" x="308.5" y="-368.8" font-family="Helvetica,sans-Serif" font-size="14.00">dayDayofweek ≤ 4.5</text>
<text text-anchor="start" x="335.5" y="-353.8" font-family="Helvetica,sans-Serif" font-size="14.00">mse = 0.08</text>
<text text-anchor="start" x="325" y="-338.8" font-family="Helvetica,sans-Serif" font-size="14.00">samples = 140</text>
<text text-anchor="start" x="332.5" y="-323.8" font-family="Helvetica,sans-Serif" font-size="14.00">value = 8.19</text>
</g>
<!-- 0&#45;&gt;1 -->
<g id="edge1" class="edge">
<title>0&#45;&gt;1</title>
<path fill="none" stroke="black" d="M450.65,-471.58C435.33,-448.68 414.88,-418.1 398.41,-393.47"/>
<polygon fill="black" stroke="black" points="400.77,-391.72 392.31,-385.35 394.96,-395.61 400.77,-391.72"/>
<text text-anchor="middle" x="387.44" y="-405.17" font-family="Helvetica,sans-Serif" font-size="14.00">True</text>
</g>
<!-- 8 -->
<g id="node9" class="node">
<title>8</title>
<path fill="#f8decb" stroke="black" d="M628,-384C628,-384 530,-384 530,-384 524,-384 518,-378 518,-372 518,-372 518,-328 518,-328 518,-322 524,-316 530,-316 530,-316 628,-316 628,-316 634,-316 640,-322 640,-328 640,-328 640,-372 640,-372 640,-378 634,-384 628,-384"/>
<text text-anchor="start" x="526" y="-368.8" font-family="Helvetica,sans-Serif" font-size="14.00">shop_name ≤ 6.5</text>
<text text-anchor="start" x="544.5" y="-353.8" font-family="Helvetica,sans-Serif" font-size="14.00">mse = 0.19</text>
<text text-anchor="start" x="534" y="-338.8" font-family="Helvetica,sans-Serif" font-size="14.00">samples = 340</text>
<text text-anchor="start" x="541.5" y="-323.8" font-family="Helvetica,sans-Serif" font-size="14.00">value = 7.76</text>
</g>
<!-- 0&#45;&gt;8 -->
<g id="edge8" class="edge">
<title>0&#45;&gt;8</title>
<path fill="none" stroke="black" d="M496,-471.58C511.84,-448.58 533,-417.83 549.99,-393.15"/>
<polygon fill="black" stroke="black" points="553.26,-395.57 556.04,-385.35 547.49,-391.6 553.26,-395.57"/>
<text text-anchor="middle" x="560.58" y="-405.24" font-family="Helvetica,sans-Serif" font-size="14.00">False</text>
</g>
<!-- 2 -->
<g id="node3" class="node">
<title>2</title>
<path fill="#f1bb93" stroke="black" d="M217,-229C217,-229 113,-229 113,-229 107,-229 101,-223 101,-217 101,-217 101,-173 101,-173 101,-167 107,-161 113,-161 113,-161 217,-161 217,-161 223,-161 229,-167 229,-173 229,-173 229,-217 229,-217 229,-223 223,-229 217,-229"/>
<text text-anchor="start" x="109" y="-213.8" font-family="Helvetica,sans-Serif" font-size="14.00">dayElapsed ≤ 0.77</text>
<text text-anchor="start" x="130.5" y="-198.8" font-family="Helvetica,sans-Serif" font-size="14.00">mse = 0.05</text>
<text text-anchor="start" x="124" y="-183.8" font-family="Helvetica,sans-Serif" font-size="14.00">samples = 82</text>
<text text-anchor="start" x="127.5" y="-168.8" font-family="Helvetica,sans-Serif" font-size="14.00">value = 8.07</text>
</g>
<!-- 1&#45;&gt;2 -->
<g id="edge2" class="edge">
<title>1&#45;&gt;2</title>
<path fill="none" stroke="black" d="M325.27,-315.61C293.79,-292.12 251.54,-260.59 218.32,-235.79"/>
<polygon fill="black" stroke="black" points="220.75,-232.49 210.64,-229.32 216.56,-238.1 220.75,-232.49"/>
</g>
<!-- 5 -->
<g id="node6" class="node">
<title>5</title>
<path fill="#e9975b" stroke="black" d="M453.5,-229C453.5,-229 286.5,-229 286.5,-229 280.5,-229 274.5,-223 274.5,-217 274.5,-217 274.5,-173 274.5,-173 274.5,-167 280.5,-161 286.5,-161 286.5,-161 453.5,-161 453.5,-161 459.5,-161 465.5,-167 465.5,-173 465.5,-173 465.5,-217 465.5,-217 465.5,-223 459.5,-229 453.5,-229"/>
<text text-anchor="start" x="282.5" y="-213.8" font-family="Helvetica,sans-Serif" font-size="14.00">Maximilien MICHIELS ≤ 2.95</text>
<text text-anchor="start" x="335.5" y="-198.8" font-family="Helvetica,sans-Serif" font-size="14.00">mse = 0.07</text>
<text text-anchor="start" x="329" y="-183.8" font-family="Helvetica,sans-Serif" font-size="14.00">samples = 58</text>
<text text-anchor="start" x="332.5" y="-168.8" font-family="Helvetica,sans-Serif" font-size="14.00">value = 8.38</text>
</g>
<!-- 1&#45;&gt;5 -->
<g id="edge5" class="edge">
<title>1&#45;&gt;5</title>
<path fill="none" stroke="black" d="M370,-315.8C370,-293.72 370,-264.47 370,-240.4"/>
<polygon fill="black" stroke="black" points="373.5,-240.4 370,-230.4 366.5,-240.4 373.5,-240.4"/>
</g>
<!-- 3 -->
<g id="node4" class="node">
<title>3</title>
<path fill="#f2bf9b" stroke="black" d="M86,-66.5C86,-66.5 12,-66.5 12,-66.5 6,-66.5 0,-60.5 0,-54.5 0,-54.5 0,-25.5 0,-25.5 0,-19.5 6,-13.5 12,-13.5 12,-13.5 86,-13.5 86,-13.5 92,-13.5 98,-19.5 98,-25.5 98,-25.5 98,-54.5 98,-54.5 98,-60.5 92,-66.5 86,-66.5"/>
<text text-anchor="start" x="14.5" y="-51.3" font-family="Helvetica,sans-Serif" font-size="14.00">mse = 0.06</text>
<text text-anchor="start" x="8" y="-36.3" font-family="Helvetica,sans-Serif" font-size="14.00">samples = 61</text>
<text text-anchor="start" x="11.5" y="-21.3" font-family="Helvetica,sans-Serif" font-size="14.00">value = 8.02</text>
</g>
<!-- 2&#45;&gt;3 -->
<g id="edge3" class="edge">
<title>2&#45;&gt;3</title>
<path fill="none" stroke="black" d="M139.83,-160.8C120.64,-135.49 94.29,-100.74 74.92,-75.18"/>
<polygon fill="black" stroke="black" points="77.21,-73.41 68.38,-67.56 71.63,-77.64 77.21,-73.41"/>
</g>
<!-- 4 -->
<g id="node5" class="node">
<title>4</title>
<path fill="#eeac7d" stroke="black" d="M202,-66.5C202,-66.5 128,-66.5 128,-66.5 122,-66.5 116,-60.5 116,-54.5 116,-54.5 116,-25.5 116,-25.5 116,-19.5 122,-13.5 128,-13.5 128,-13.5 202,-13.5 202,-13.5 208,-13.5 214,-19.5 214,-25.5 214,-25.5 214,-54.5 214,-54.5 214,-60.5 208,-66.5 202,-66.5"/>
<text text-anchor="start" x="130.5" y="-51.3" font-family="Helvetica,sans-Serif" font-size="14.00">mse = 0.01</text>
<text text-anchor="start" x="124" y="-36.3" font-family="Helvetica,sans-Serif" font-size="14.00">samples = 21</text>
<text text-anchor="start" x="127.5" y="-21.3" font-family="Helvetica,sans-Serif" font-size="14.00">value = 8.19</text>
</g>
<!-- 2&#45;&gt;4 -->
<g id="edge4" class="edge">
<title>2&#45;&gt;4</title>
<path fill="none" stroke="black" d="M165,-160.8C165,-136.26 165,-102.85 165,-77.55"/>
<polygon fill="black" stroke="black" points="168.5,-77.56 165,-67.56 161.5,-77.56 168.5,-77.56"/>
</g>
<!-- 6 -->
<g id="node7" class="node">
<title>6</title>
<path fill="#e78a48" stroke="black" d="M318,-66.5C318,-66.5 244,-66.5 244,-66.5 238,-66.5 232,-60.5 232,-54.5 232,-54.5 232,-25.5 232,-25.5 232,-19.5 238,-13.5 244,-13.5 244,-13.5 318,-13.5 318,-13.5 324,-13.5 330,-19.5 330,-25.5 330,-25.5 330,-54.5 330,-54.5 330,-60.5 324,-66.5 318,-66.5"/>
<text text-anchor="start" x="246.5" y="-51.3" font-family="Helvetica,sans-Serif" font-size="14.00">mse = 0.03</text>
<text text-anchor="start" x="240" y="-36.3" font-family="Helvetica,sans-Serif" font-size="14.00">samples = 44</text>
<text text-anchor="start" x="243.5" y="-21.3" font-family="Helvetica,sans-Serif" font-size="14.00">value = 8.48</text>
</g>
<!-- 5&#45;&gt;6 -->
<g id="edge6" class="edge">
<title>5&#45;&gt;6</title>
<path fill="none" stroke="black" d="M350.69,-160.8C336.09,-135.71 316.1,-101.34 301.27,-75.85"/>
<polygon fill="black" stroke="black" points="303.92,-74.44 295.87,-67.56 297.87,-77.96 303.92,-74.44"/>
</g>
<!-- 7 -->
<g id="node8" class="node">
<title>7</title>
<path fill="#f1bd98" stroke="black" d="M434,-66.5C434,-66.5 360,-66.5 360,-66.5 354,-66.5 348,-60.5 348,-54.5 348,-54.5 348,-25.5 348,-25.5 348,-19.5 354,-13.5 360,-13.5 360,-13.5 434,-13.5 434,-13.5 440,-13.5 446,-19.5 446,-25.5 446,-25.5 446,-54.5 446,-54.5 446,-60.5 440,-66.5 434,-66.5"/>
<text text-anchor="start" x="362.5" y="-51.3" font-family="Helvetica,sans-Serif" font-size="14.00">mse = 0.03</text>
<text text-anchor="start" x="356" y="-36.3" font-family="Helvetica,sans-Serif" font-size="14.00">samples = 14</text>
<text text-anchor="start" x="359.5" y="-21.3" font-family="Helvetica,sans-Serif" font-size="14.00">value = 8.04</text>
</g>
<!-- 5&#45;&gt;7 -->
<g id="edge7" class="edge">
<title>5&#45;&gt;7</title>
<path fill="none" stroke="black" d="M375.86,-160.8C380.21,-136.15 386.14,-102.55 390.61,-77.21"/>
<polygon fill="black" stroke="black" points="394.2,-78.01 392.49,-67.56 387.31,-76.8 394.2,-78.01"/>
</g>
<!-- 9 -->
<g id="node10" class="node">
<title>9</title>
<path fill="#fbede2" stroke="black" d="M636.5,-229C636.5,-229 521.5,-229 521.5,-229 515.5,-229 509.5,-223 509.5,-217 509.5,-217 509.5,-173 509.5,-173 509.5,-167 515.5,-161 521.5,-161 521.5,-161 636.5,-161 636.5,-161 642.5,-161 648.5,-167 648.5,-173 648.5,-173 648.5,-217 648.5,-217 648.5,-223 642.5,-229 636.5,-229"/>
<text text-anchor="start" x="517.5" y="-213.8" font-family="Helvetica,sans-Serif" font-size="14.00">dayDayofweek ≤ 4.5</text>
<text text-anchor="start" x="544.5" y="-198.8" font-family="Helvetica,sans-Serif" font-size="14.00">mse = 0.12</text>
<text text-anchor="start" x="534" y="-183.8" font-family="Helvetica,sans-Serif" font-size="14.00">samples = 281</text>
<text text-anchor="start" x="541.5" y="-168.8" font-family="Helvetica,sans-Serif" font-size="14.00">value = 7.63</text>
</g>
<!-- 8&#45;&gt;9 -->
<g id="edge9" class="edge">
<title>8&#45;&gt;9</title>
<path fill="none" stroke="black" d="M579,-315.8C579,-293.72 579,-264.47 579,-240.4"/>
<polygon fill="black" stroke="black" points="582.5,-240.4 579,-230.4 575.5,-240.4 582.5,-240.4"/>
</g>
<!-- 12 -->
<g id="node13" class="node">
<title>12</title>
<path fill="#ea985d" stroke="black" d="M818.5,-229C818.5,-229 703.5,-229 703.5,-229 697.5,-229 691.5,-223 691.5,-217 691.5,-217 691.5,-173 691.5,-173 691.5,-167 697.5,-161 703.5,-161 703.5,-161 818.5,-161 818.5,-161 824.5,-161 830.5,-167 830.5,-173 830.5,-173 830.5,-217 830.5,-217 830.5,-223 824.5,-229 818.5,-229"/>
<text text-anchor="start" x="699.5" y="-213.8" font-family="Helvetica,sans-Serif" font-size="14.00">dayDayofweek ≤ 4.5</text>
<text text-anchor="start" x="726.5" y="-198.8" font-family="Helvetica,sans-Serif" font-size="14.00">mse = 0.06</text>
<text text-anchor="start" x="720" y="-183.8" font-family="Helvetica,sans-Serif" font-size="14.00">samples = 59</text>
<text text-anchor="start" x="723.5" y="-168.8" font-family="Helvetica,sans-Serif" font-size="14.00">value = 8.37</text>
</g>
<!-- 8&#45;&gt;12 -->
<g id="edge12" class="edge">
<title>8&#45;&gt;12</title>
<path fill="none" stroke="black" d="M618.49,-315.8C646.3,-292.42 683.68,-261 713.18,-236.2"/>
<polygon fill="black" stroke="black" points="714.87,-238.51 720.27,-229.4 710.37,-233.15 714.87,-238.51"/>
</g>
<!-- 10 -->
<g id="node11" class="node">
<title>10</title>
<path fill="#ffffff" stroke="black" d="M558,-66.5C558,-66.5 476,-66.5 476,-66.5 470,-66.5 464,-60.5 464,-54.5 464,-54.5 464,-25.5 464,-25.5 464,-19.5 470,-13.5 476,-13.5 476,-13.5 558,-13.5 558,-13.5 564,-13.5 570,-19.5 570,-25.5 570,-25.5 570,-54.5 570,-54.5 570,-60.5 564,-66.5 558,-66.5"/>
<text text-anchor="start" x="482.5" y="-51.3" font-family="Helvetica,sans-Serif" font-size="14.00">mse = 0.09</text>
<text text-anchor="start" x="472" y="-36.3" font-family="Helvetica,sans-Serif" font-size="14.00">samples = 165</text>
<text text-anchor="start" x="479.5" y="-21.3" font-family="Helvetica,sans-Serif" font-size="14.00">value = 7.47</text>
</g>
<!-- 9&#45;&gt;10 -->
<g id="edge10" class="edge">
<title>9&#45;&gt;10</title>
<path fill="none" stroke="black" d="M565.55,-160.8C555.47,-135.93 541.7,-101.95 531.4,-76.53"/>
<polygon fill="black" stroke="black" points="534.36,-75.51 527.36,-67.56 527.87,-78.14 534.36,-75.51"/>
</g>
<!-- 11 -->
<g id="node12" class="node">
<title>11</title>
<path fill="#f6d3b9" stroke="black" d="M682,-66.5C682,-66.5 600,-66.5 600,-66.5 594,-66.5 588,-60.5 588,-54.5 588,-54.5 588,-25.5 588,-25.5 588,-19.5 594,-13.5 600,-13.5 600,-13.5 682,-13.5 682,-13.5 688,-13.5 694,-19.5 694,-25.5 694,-25.5 694,-54.5 694,-54.5 694,-60.5 688,-66.5 682,-66.5"/>
<text text-anchor="start" x="606.5" y="-51.3" font-family="Helvetica,sans-Serif" font-size="14.00">mse = 0.08</text>
<text text-anchor="start" x="596" y="-36.3" font-family="Helvetica,sans-Serif" font-size="14.00">samples = 116</text>
<text text-anchor="start" x="603.5" y="-21.3" font-family="Helvetica,sans-Serif" font-size="14.00">value = 7.86</text>
</g>
<!-- 9&#45;&gt;11 -->
<g id="edge11" class="edge">
<title>9&#45;&gt;11</title>
<path fill="none" stroke="black" d="M592.45,-160.8C602.53,-135.93 616.3,-101.95 626.6,-76.53"/>
<polygon fill="black" stroke="black" points="630.13,-78.14 630.64,-67.56 623.64,-75.51 630.13,-78.14"/>
</g>
<!-- 13 -->
<g id="node14" class="node">
<title>13</title>
<path fill="#eda775" stroke="black" d="M798,-66.5C798,-66.5 724,-66.5 724,-66.5 718,-66.5 712,-60.5 712,-54.5 712,-54.5 712,-25.5 712,-25.5 712,-19.5 718,-13.5 724,-13.5 724,-13.5 798,-13.5 798,-13.5 804,-13.5 810,-19.5 810,-25.5 810,-25.5 810,-54.5 810,-54.5 810,-60.5 804,-66.5 798,-66.5"/>
<text text-anchor="start" x="726.5" y="-51.3" font-family="Helvetica,sans-Serif" font-size="14.00">mse = 0.04</text>
<text text-anchor="start" x="720" y="-36.3" font-family="Helvetica,sans-Serif" font-size="14.00">samples = 35</text>
<text text-anchor="start" x="723.5" y="-21.3" font-family="Helvetica,sans-Serif" font-size="14.00">value = 8.23</text>
</g>
<!-- 12&#45;&gt;13 -->
<g id="edge13" class="edge">
<title>12&#45;&gt;13</title>
<path fill="none" stroke="black" d="M761,-160.8C761,-136.26 761,-102.85 761,-77.55"/>
<polygon fill="black" stroke="black" points="764.5,-77.56 761,-67.56 757.5,-77.56 764.5,-77.56"/>
</g>
<!-- 14 -->
<g id="node15" class="node">
<title>14</title>
<path fill="#e58139" stroke="black" d="M914,-66.5C914,-66.5 840,-66.5 840,-66.5 834,-66.5 828,-60.5 828,-54.5 828,-54.5 828,-25.5 828,-25.5 828,-19.5 834,-13.5 840,-13.5 840,-13.5 914,-13.5 914,-13.5 920,-13.5 926,-19.5 926,-25.5 926,-25.5 926,-54.5 926,-54.5 926,-60.5 920,-66.5 914,-66.5"/>
<text text-anchor="start" x="842.5" y="-51.3" font-family="Helvetica,sans-Serif" font-size="14.00">mse = 0.03</text>
<text text-anchor="start" x="836" y="-36.3" font-family="Helvetica,sans-Serif" font-size="14.00">samples = 24</text>
<text text-anchor="start" x="839.5" y="-21.3" font-family="Helvetica,sans-Serif" font-size="14.00">value = 8.56</text>
</g>
<!-- 12&#45;&gt;14 -->
<g id="edge14" class="edge">
<title>12&#45;&gt;14</title>
<path fill="none" stroke="black" d="M786.17,-160.8C805.36,-135.49 831.71,-100.74 851.08,-75.18"/>
<polygon fill="black" stroke="black" points="854.37,-77.64 857.62,-67.56 848.79,-73.41 854.37,-77.64"/>
</g>
</g>
</svg>
